<?xml version="1.0" encoding="utf-8"?>
<!-- Generator: Adobe Illustrator 24.0.0, SVG Export Plug-In . SVG Version: 6.00 Build 0)  -->
<svg version="1.1" xmlns="http://www.w3.org/2000/svg" xmlns:xlink="http://www.w3.org/1999/xlink" x="0px" y="0px"
	 viewBox="0 0 213.2 213.4" style="enable-background:new 0 0 213.2 213.4;" xml:space="preserve">
<style type="text/css">
	.st0{display:none;}
	.st1{display:inline;fill:#898484;}
	.st2{fill:none;}
	.st3{fill:#39398D;}
	.st4{fill:#A1A2A2;}
</style>
<g id="Layer_2" class="st0">
	<rect x="-26.8" y="-8.5" class="st1" width="279.8" height="204.3"/>
</g>
<g id="Layer_1">
	<rect x="-1.6" y="-19" class="st2" width="278" height="254.7"/>
	<rect x="-4.6" y="-19" class="st2" width="278" height="254.7"/>
	<g>
		<path class="st3" d="M151.5,91.7c-1.8,0.5-3.4,0.8-4.9,0.8c-3.1,0-5.2-0.5-6.4-1.5c-1.2-1-1.8-2.9-1.8-5.7c0-1.1,0.2-2.7,0.6-4.9
			c0.4-2.2,0.8-4.1,1.3-5.8l5.4-20.2c0.6-2.3,1-4.4,1.2-6.4s0.3-3.5,0.3-4.7c0-4.2-1.5-7.7-4.5-10.7s-7.2-4.4-12.5-4.4
			c-5.7,0-10.7,1.2-15.1,3.6s-9.2,5.8-14.3,10.2H100c-0.3-3.9-2.1-7.2-5.3-9.8c-3.2-2.6-7.2-4-12.2-4c-5.8,0-11,1.2-15.4,3.5
			C62.7,34,58,37.4,53.2,41.8h-0.5c-1.1-3.8-2.9-6.8-5.5-9.2c-2.6-2.4-6.8-3.6-12.7-3.6c-3.2,0-6.5,0.6-10.1,1.7
			c-3.6,1.1-7.3,2.5-11.2,4.1l-1.6,6.5c1.2-0.4,2.5-0.9,4.2-1.4s3.2-0.7,4.7-0.7c3.1,0,5.2,0.5,6.3,1.6c1.1,1,1.6,2.9,1.6,5.7
			c0,1.3-0.2,3.1-0.7,5.3c-0.5,2.2-0.8,4-1.1,5.3l-10.3,44.3h23.8l12-52c4-3.6,7.3-6,9.9-7.2s4.7-1.8,6.2-1.8c2.6,0,4.5,0.7,5.7,1.9
			c1.1,1.3,1.7,3.1,1.7,5.4c0,1.1-0.1,2.4-0.4,3.9c-0.3,1.5-0.7,3.4-1.2,5.8l-10.1,44h23.8l12-52c2.9-2.7,5.7-4.9,8.5-6.6
			s5.1-2.4,6.9-2.4c2.6,0,4.5,0.7,5.6,1.9c1.1,1.3,1.7,3.1,1.7,5.4c0,1.1-0.1,2.4-0.4,4.1c-0.3,1.7-0.7,3.5-1.2,5.6l-5.2,19.2
			c-0.7,2.7-1.1,4.9-1.2,6.7s-0.2,3.3-0.2,4.4c0,4.2,1.6,7.8,4.8,10.6c3.2,2.9,7.6,4.3,13.4,4.3c3.8,0,7.1-0.5,9.9-1.5
			s6.6-2.4,11.4-4.3l1.6-6.5C154.6,90.8,153.3,91.2,151.5,91.7"/>
		<path class="st4" d="M155.4,168c-1.8,1.9-3.8,3.5-6,4.9s-4.5,2-6.8,2c-2.2,0-4.1-0.4-5.5-1.2c-1.5-0.8-2.6-2-3.5-3.5
			c-0.8-1.4-1.4-3.1-1.8-5.1c-0.4-2-0.5-4.2-0.5-6.6c0-5.3,0.6-10.5,1.7-15.5s2.7-9.4,4.6-13c2.1-3.9,4.4-7.1,7.1-9.3
			c2.7-2.3,5.5-3.4,8.6-3.4c2.3,0,4.1,0.4,5.5,1c1.4,0.7,2.5,1.6,3.4,2.8c0.9,1.1,1.5,2.4,1.8,3.6c0.3,1.3,0.5,2.5,0.5,3.7
			L155.4,168z M162.2,182.2c2.9,1.9,6.9,2.9,11.8,2.9c3.7,0,7-0.5,9.9-1.5c2.8-1,6.6-2.4,11.4-4.3l1.6-6.5c-0.8,0.3-2.1,0.8-4,1.3
			s-3.5,0.8-4.9,0.8c-3.1,0-5.2-0.5-6.4-1.6c-1.2-1-1.8-2.9-1.8-5.7c0-1.1,0.2-2.9,0.7-5.1c0.5-2.3,0.9-4.1,1.2-5.5L201,73.2
			l-0.8-1.1l-40.4,1.9l-1.3,5.3c2.1,0.2,4,0.5,5.7,0.8s3.3,0.7,4.6,1.4c1.4,0.6,2.6,1.5,3.4,2.6c0.8,1.1,1.2,2.4,1.2,4
			c0,0.5-0.1,1.1-0.2,1.9c-0.1,0.8-0.3,1.5-0.4,2.2l-5.3,23.4c-2-1.5-4.4-2.8-7.4-3.7c-3-0.9-6.7-1.4-11.1-1.4
			c-5.9,0-11.5,1.3-16.8,3.8c-5.3,2.5-9.9,5.9-13.8,10.3c-3.9,4.4-7.1,9.4-9.4,15.2s-3.5,11.9-3.5,18.5c0,8.6,2.1,15.3,6.4,20.2
			c4.2,4.9,10.5,7.4,18.9,7.4c2.8,0,5.3-0.3,7.4-1s4.3-1.5,6.6-2.7c2.4-1.2,4.4-2.4,5.9-3.6s3.1-2.5,4.8-3.9h0.6
			C157.2,177.7,159.3,180.2,162.2,182.2"/>
	</g>
</g>
</svg>
