<?xml version="1.0" encoding="utf-8"?>
<!-- Generator: Adobe Illustrator 23.0.6, SVG Export Plug-In . SVG Version: 6.00 Build 0)  -->
<svg version="1.1" id="Layer_1" xmlns="http://www.w3.org/2000/svg" xmlns:xlink="http://www.w3.org/1999/xlink" x="0px" y="0px"
	 viewBox="0 0 360 360" style="enable-background:new 0 0 360 360;" xml:space="preserve">
<style type="text/css">
	.st0{clip-path:url(#SVGID_2_);fill:#FFFFFF;}
	.st1{clip-path:url(#SVGID_4_);}
</style>
<g>
	<g>
		<defs>
			<rect id="SVGID_1_" x="73.2" y="54.4" width="278" height="254.7"/>
		</defs>
		<use xlink:href="#SVGID_1_"  style="overflow:visible;fill:#FFFFFF;"/>
		<clipPath id="SVGID_2_">
			<use xlink:href="#SVGID_1_"  style="overflow:visible;"/>
		</clipPath>
		<path class="st0" d="M213,156.4c-1.8,0.5-3.4,0.8-4.9,0.8c-3.1,0-5.2-0.5-6.4-1.5c-1.2-1-1.8-2.9-1.8-5.7c0-1.1,0.2-2.7,0.6-4.9
			c0.4-2.2,0.8-4.1,1.3-5.8l5.4-20.3c0.6-2.3,1-4.4,1.2-6.4s0.3-3.5,0.3-4.7c0-4.2-1.5-7.7-4.5-10.7s-7.2-4.4-12.5-4.4
			c-5.7,0-10.7,1.2-15.1,3.6s-9.2,5.8-14.3,10.2h-0.5c-0.3-3.9-2.1-7.2-5.3-9.8c-3.2-2.6-7.2-4-12.2-4c-5.8,0-11,1.2-15.4,3.5
			c-4.5,2.3-9.1,5.7-13.9,10.1h-0.5c-1.1-3.8-2.9-6.8-5.5-9.2c-2.6-2.4-6.8-3.6-12.7-3.6c-3.2,0-6.5,0.6-10.1,1.7
			c-3.6,1.1-7.3,2.5-11.2,4.1l-1.6,6.5c1.2-0.4,2.5-0.9,4.2-1.4s3.2-0.7,4.7-0.7c3.1,0,5.2,0.5,6.3,1.6c1.1,1,1.6,2.9,1.6,5.7
			c0,1.3-0.2,3.1-0.7,5.3c-0.5,2.2-0.8,4-1.1,5.3l-10.3,44.3h23.8l12-52.1c4-3.6,7.3-6,9.9-7.2s4.7-1.8,6.2-1.8
			c2.6,0,4.5,0.7,5.7,1.9c1.1,1.3,1.7,3.1,1.7,5.4c0,1.1-0.1,2.4-0.4,3.9c-0.3,1.5-0.7,3.4-1.2,5.8l-10.1,44h23.8l12-52.1
			c2.9-2.7,5.7-4.9,8.5-6.6s5.1-2.4,6.9-2.4c2.6,0,4.5,0.7,5.6,1.9c1.1,1.3,1.7,3.1,1.7,5.4c0,1.1-0.1,2.4-0.4,4.1
			c-0.3,1.7-0.7,3.5-1.2,5.6l-5.2,19.2c-0.7,2.7-1.1,4.9-1.2,6.7s-0.2,3.3-0.2,4.4c0,4.2,1.6,7.8,4.8,10.6c3.2,2.9,7.6,4.3,13.4,4.3
			c3.8,0,7.1-0.5,9.9-1.5s6.6-2.4,11.4-4.3l1.6-6.5C216.1,155.4,214.8,155.9,213,156.4"/>
	</g>
	<g>
		<defs>
			<rect id="SVGID_3_" x="71.4" y="54.4" width="278" height="254.7"/>
		</defs>
		<clipPath id="SVGID_4_">
			<use xlink:href="#SVGID_3_"  style="overflow:visible;"/>
		</clipPath>
		<path class="st1" d="M218.1,232.7c-1.8,1.9-3.8,3.5-6,4.9s-4.5,2-6.8,2c-2.2,0-4.1-0.4-5.5-1.2c-1.5-0.8-2.6-2-3.5-3.5
			c-0.8-1.4-1.4-3.1-1.8-5.1c-0.4-2-0.5-4.2-0.5-6.6c0-5.3,0.6-10.5,1.7-15.5s2.7-9.4,4.6-13c2.1-3.9,4.4-7.1,7.1-9.3
			c2.7-2.3,5.5-3.4,8.6-3.4c2.3,0,4.1,0.4,5.5,1c1.4,0.7,2.5,1.6,3.4,2.8c0.9,1.1,1.5,2.4,1.8,3.6c0.3,1.3,0.5,2.5,0.5,3.7
			L218.1,232.7z M225,246.8c2.9,1.9,6.9,2.9,11.8,2.9c3.7,0,7-0.5,9.9-1.5c2.8-1,6.6-2.4,11.4-4.3l1.6-6.5c-0.8,0.3-2.1,0.8-4,1.3
			s-3.5,0.8-4.9,0.8c-3.1,0-5.2-0.5-6.4-1.6c-1.2-1-1.8-2.9-1.8-5.7c0-1.1,0.2-2.9,0.7-5.1c0.5-2.3,0.9-4.1,1.2-5.5l19.4-83.8
			l-0.8-1.1l-40.4,1.9l-1.3,5.3c2.1,0.2,4,0.5,5.7,0.8s3.3,0.7,4.6,1.4c1.4,0.6,2.6,1.5,3.4,2.6c0.8,1.1,1.2,2.4,1.2,4
			c0,0.5-0.1,1.1-0.2,1.9c-0.1,0.8-0.3,1.5-0.4,2.2l-5.3,23.4c-2-1.5-4.4-2.8-7.4-3.7c-3-0.9-6.7-1.4-11.1-1.4
			c-5.9,0-11.5,1.3-16.8,3.8s-9.9,5.9-13.9,10.3c-3.9,4.4-7.1,9.4-9.4,15.2s-3.5,11.9-3.5,18.5c0,8.6,2.1,15.3,6.4,20.2
			c4.2,4.9,10.5,7.4,18.9,7.4c2.8,0,5.3-0.3,7.4-1s4.3-1.5,6.6-2.7c2.4-1.2,4.4-2.4,5.9-3.6s3.1-2.5,4.8-3.9h0.6
			C220,242.4,222,244.9,225,246.8"/>
	</g>
</g>
</svg>
